<svg id="visual" viewBox="0 0 960 540" width="960" height="540" xmlns="http://www.w3.org/2000/svg" xmlns:xlink="http://www.w3.org/1999/xlink" version="1.1"><rect x="0" y="0" width="960" height="540" fill="#1f3d30"></rect><path d="M0 487L12.3 491.2C24.7 495.3 49.3 503.7 74 507.7C98.7 511.7 123.3 511.3 148 511.2C172.7 511 197.3 511 221.8 503C246.3 495 270.7 479 295.2 470C319.7 461 344.3 459 369 467.7C393.7 476.3 418.3 495.7 443 501C467.7 506.3 492.3 497.7 517 496.2C541.7 494.7 566.3 500.3 591 500.5C615.7 500.7 640.3 495.3 664.8 489.2C689.3 483 713.7 476 738.2 474.8C762.7 473.7 787.3 478.3 812 476.7C836.7 475 861.3 467 886 472.3C910.7 477.7 935.3 496.3 947.7 505.7L960 515L960 0L947.7 0C935.3 0 910.7 0 886 0C861.3 0 836.7 0 812 0C787.3 0 762.7 0 738.2 0C713.7 0 689.3 0 664.8 0C640.3 0 615.7 0 591 0C566.3 0 541.7 0 517 0C492.3 0 467.7 0 443 0C418.3 0 393.7 0 369 0C344.3 0 319.7 0 295.2 0C270.7 0 246.3 0 221.8 0C197.3 0 172.7 0 148 0C123.3 0 98.7 0 74 0C49.3 0 24.7 0 12.3 0L0 0Z" fill="#c84b31"></path><path d="M0 412L12.3 412.5C24.7 413 49.3 414 74 419.3C98.7 424.7 123.3 434.3 148 441.2C172.7 448 197.3 452 221.8 452.8C246.3 453.7 270.7 451.3 295.2 444.7C319.7 438 344.3 427 369 420.3C393.7 413.7 418.3 411.3 443 418.5C467.7 425.7 492.3 442.3 517 449C541.7 455.7 566.3 452.3 591 442.7C615.7 433 640.3 417 664.8 415.5C689.3 414 713.7 427 738.2 429.5C762.7 432 787.3 424 812 423.5C836.7 423 861.3 430 886 432.3C910.7 434.7 935.3 432.3 947.7 431.2L960 430L960 0L947.7 0C935.3 0 910.7 0 886 0C861.3 0 836.7 0 812 0C787.3 0 762.7 0 738.2 0C713.7 0 689.3 0 664.8 0C640.3 0 615.7 0 591 0C566.3 0 541.7 0 517 0C492.3 0 467.7 0 443 0C418.3 0 393.7 0 369 0C344.3 0 319.7 0 295.2 0C270.7 0 246.3 0 221.8 0C197.3 0 172.7 0 148 0C123.3 0 98.7 0 74 0C49.3 0 24.7 0 12.3 0L0 0Z" fill="#b0452e"></path><path d="M0 366L12.3 366C24.7 366 49.3 366 74 364C98.7 362 123.3 358 148 364.5C172.7 371 197.3 388 221.8 393.2C246.3 398.3 270.7 391.7 295.2 391.2C319.7 390.7 344.3 396.3 369 400.3C393.7 404.3 418.3 406.7 443 399.7C467.7 392.7 492.3 376.3 517 367.2C541.7 358 566.3 356 591 361C615.7 366 640.3 378 664.8 381C689.3 384 713.7 378 738.2 376C762.7 374 787.3 376 812 373C836.7 370 861.3 362 886 364.8C910.7 367.7 935.3 381.3 947.7 388.2L960 395L960 0L947.7 0C935.3 0 910.7 0 886 0C861.3 0 836.7 0 812 0C787.3 0 762.7 0 738.2 0C713.7 0 689.3 0 664.8 0C640.3 0 615.7 0 591 0C566.3 0 541.7 0 517 0C492.3 0 467.7 0 443 0C418.3 0 393.7 0 369 0C344.3 0 319.7 0 295.2 0C270.7 0 246.3 0 221.8 0C197.3 0 172.7 0 148 0C123.3 0 98.7 0 74 0C49.3 0 24.7 0 12.3 0L0 0Z" fill="#983f2b"></path><path d="M0 319L12.3 322.5C24.7 326 49.3 333 74 328.5C98.7 324 123.3 308 148 306C172.7 304 197.3 316 221.8 320.7C246.3 325.3 270.7 322.7 295.2 326.3C319.7 330 344.3 340 369 340.2C393.7 340.3 418.3 330.7 443 330.8C467.7 331 492.3 341 517 344.3C541.7 347.7 566.3 344.3 591 341C615.7 337.7 640.3 334.3 664.8 326.8C689.3 319.3 713.7 307.7 738.2 307.3C762.7 307 787.3 318 812 322.3C836.7 326.7 861.3 324.3 886 321.2C910.7 318 935.3 314 947.7 312L960 310L960 0L947.7 0C935.3 0 910.7 0 886 0C861.3 0 836.7 0 812 0C787.3 0 762.7 0 738.2 0C713.7 0 689.3 0 664.8 0C640.3 0 615.7 0 591 0C566.3 0 541.7 0 517 0C492.3 0 467.7 0 443 0C418.3 0 393.7 0 369 0C344.3 0 319.7 0 295.2 0C270.7 0 246.3 0 221.8 0C197.3 0 172.7 0 148 0C123.3 0 98.7 0 74 0C49.3 0 24.7 0 12.3 0L0 0Z" fill="#813827"></path><path d="M0 244L12.3 243C24.7 242 49.3 240 74 246.8C98.7 253.7 123.3 269.3 148 270.3C172.7 271.3 197.3 257.7 221.8 255.2C246.3 252.7 270.7 261.3 295.2 265.5C319.7 269.7 344.3 269.3 369 264.3C393.7 259.3 418.3 249.7 443 249C467.7 248.3 492.3 256.7 517 261.7C541.7 266.7 566.3 268.3 591 269.5C615.7 270.7 640.3 271.3 664.8 266.8C689.3 262.3 713.7 252.7 738.2 249.8C762.7 247 787.3 251 812 251C836.7 251 861.3 247 886 252.8C910.7 258.7 935.3 274.3 947.7 282.2L960 290L960 0L947.7 0C935.3 0 910.7 0 886 0C861.3 0 836.7 0 812 0C787.3 0 762.7 0 738.2 0C713.7 0 689.3 0 664.8 0C640.3 0 615.7 0 591 0C566.3 0 541.7 0 517 0C492.3 0 467.7 0 443 0C418.3 0 393.7 0 369 0C344.3 0 319.7 0 295.2 0C270.7 0 246.3 0 221.8 0C197.3 0 172.7 0 148 0C123.3 0 98.7 0 74 0C49.3 0 24.7 0 12.3 0L0 0Z" fill="#6b3224"></path><path d="M0 231L12.3 226C24.7 221 49.3 211 74 212.2C98.7 213.3 123.3 225.7 148 228.3C172.7 231 197.3 224 221.8 215.5C246.3 207 270.7 197 295.2 191.8C319.7 186.7 344.3 186.3 369 196.3C393.7 206.3 418.3 226.7 443 235.5C467.7 244.3 492.3 241.7 517 231.3C541.7 221 566.3 203 591 195.2C615.7 187.3 640.3 189.7 664.8 192.7C689.3 195.7 713.7 199.3 738.2 201.7C762.7 204 787.3 205 812 209.3C836.7 213.7 861.3 221.3 886 226.7C910.7 232 935.3 235 947.7 236.5L960 238L960 0L947.7 0C935.3 0 910.7 0 886 0C861.3 0 836.7 0 812 0C787.3 0 762.7 0 738.2 0C713.7 0 689.3 0 664.8 0C640.3 0 615.7 0 591 0C566.3 0 541.7 0 517 0C492.3 0 467.7 0 443 0C418.3 0 393.7 0 369 0C344.3 0 319.7 0 295.2 0C270.7 0 246.3 0 221.8 0C197.3 0 172.7 0 148 0C123.3 0 98.7 0 74 0C49.3 0 24.7 0 12.3 0L0 0Z" fill="#552b21"></path><path d="M0 180L12.3 179.2C24.7 178.3 49.3 176.7 74 169C98.7 161.3 123.3 147.7 148 145.7C172.7 143.7 197.3 153.3 221.8 152.5C246.3 151.7 270.7 140.3 295.2 136.5C319.7 132.7 344.3 136.3 369 137C393.7 137.7 418.3 135.3 443 143.2C467.7 151 492.3 169 517 173C541.7 177 566.3 167 591 167.7C615.7 168.3 640.3 179.7 664.8 176.3C689.3 173 713.7 155 738.2 153C762.7 151 787.3 165 812 174.3C836.7 183.7 861.3 188.3 886 182C910.7 175.7 935.3 158.3 947.7 149.7L960 141L960 0L947.7 0C935.3 0 910.7 0 886 0C861.3 0 836.7 0 812 0C787.3 0 762.7 0 738.2 0C713.7 0 689.3 0 664.8 0C640.3 0 615.7 0 591 0C566.3 0 541.7 0 517 0C492.3 0 467.7 0 443 0C418.3 0 393.7 0 369 0C344.3 0 319.7 0 295.2 0C270.7 0 246.3 0 221.8 0C197.3 0 172.7 0 148 0C123.3 0 98.7 0 74 0C49.3 0 24.7 0 12.3 0L0 0Z" fill="#40241d"></path><path d="M0 138L12.3 128C24.7 118 49.3 98 74 90.5C98.7 83 123.3 88 148 96.7C172.7 105.3 197.3 117.7 221.8 115.7C246.3 113.7 270.7 97.3 295.2 91.5C319.7 85.7 344.3 90.3 369 96.2C393.7 102 418.3 109 443 107.5C467.7 106 492.3 96 517 96.3C541.7 96.7 566.3 107.3 591 113.2C615.7 119 640.3 120 664.8 114.3C689.3 108.7 713.7 96.3 738.2 94.5C762.7 92.7 787.3 101.3 812 103.5C836.7 105.7 861.3 101.3 886 99.3C910.7 97.3 935.3 97.7 947.7 97.8L960 98L960 0L947.7 0C935.3 0 910.7 0 886 0C861.3 0 836.7 0 812 0C787.3 0 762.7 0 738.2 0C713.7 0 689.3 0 664.8 0C640.3 0 615.7 0 591 0C566.3 0 541.7 0 517 0C492.3 0 467.7 0 443 0C418.3 0 393.7 0 369 0C344.3 0 319.7 0 295.2 0C270.7 0 246.3 0 221.8 0C197.3 0 172.7 0 148 0C123.3 0 98.7 0 74 0C49.3 0 24.7 0 12.3 0L0 0Z" fill="#2b1d1a"></path><path d="M0 52L12.3 54.2C24.7 56.3 49.3 60.7 74 64.7C98.7 68.7 123.3 72.3 148 65.3C172.7 58.3 197.3 40.7 221.8 33C246.3 25.3 270.7 27.7 295.2 31.5C319.7 35.3 344.3 40.7 369 46.7C393.7 52.7 418.3 59.3 443 56.7C467.7 54 492.3 42 517 38.2C541.7 34.3 566.3 38.7 591 40.8C615.7 43 640.3 43 664.8 43.2C689.3 43.3 713.7 43.7 738.2 40.7C762.7 37.7 787.3 31.3 812 37.8C836.7 44.3 861.3 63.7 886 73.7C910.7 83.7 935.3 84.3 947.7 84.7L960 85L960 0L947.7 0C935.3 0 910.7 0 886 0C861.3 0 836.7 0 812 0C787.3 0 762.7 0 738.2 0C713.7 0 689.3 0 664.8 0C640.3 0 615.7 0 591 0C566.3 0 541.7 0 517 0C492.3 0 467.7 0 443 0C418.3 0 393.7 0 369 0C344.3 0 319.7 0 295.2 0C270.7 0 246.3 0 221.8 0C197.3 0 172.7 0 148 0C123.3 0 98.7 0 74 0C49.3 0 24.7 0 12.3 0L0 0Z" fill="#161616"></path></svg>